<svg width="30" height="31" viewBox="0 0 30 31" fill="none" xmlns="http://www.w3.org/2000/svg">
<ellipse cx="15" cy="15.8963" rx="15" ry="14.9041" fill="#F9F9F9"/>
<g clip-path="url(#clip0_689_48858)">
<path d="M18.4086 21.0625H12.8984V21.9815C12.8984 23.504 14.1319 24.7383 15.6535 24.7383C17.1751 24.7383 18.4086 23.504 18.4086 21.9815V21.0625Z" stroke="#F47622" stroke-linecap="round" stroke-linejoin="round"/>
<path d="M9.22696 21.0646H22.0841C22.5913 21.0646 23.0024 20.6532 23.0024 20.1456V19.6073C23.0024 19.3636 22.9057 19.1299 22.7335 18.9575L22.2643 18.4881C22.1489 18.3726 22.0841 18.2159 22.0841 18.0526V14.6319C22.0841 11.0792 19.2059 8.19921 15.6555 8.19922C12.1051 8.19923 9.22696 11.0792 9.22696 14.6319V18.0526C9.22696 18.216 9.16212 18.3726 9.0467 18.4881L8.57758 18.9575C8.40535 19.1299 8.30859 19.3636 8.30859 19.6073V20.1456C8.30859 20.6532 8.71976 21.0646 9.22696 21.0646Z" stroke="#F47622" stroke-linecap="round" stroke-linejoin="round"/>
<path d="M23.0292 9.93146C23.0292 11.6106 21.6576 12.982 19.9531 12.982C18.2486 12.982 16.877 11.6106 16.877 9.93146C16.877 8.25227 18.2486 6.88093 19.9531 6.88093C21.6576 6.88093 23.0292 8.25227 23.0292 9.93146Z" fill="#21BA62" stroke="#F9F9F9" stroke-width="1.84779"/>
</g>
<defs>
<clipPath id="clip0_689_48858">
<rect x="2.95312" y="3.97266" width="24" height="23.8466" fill="white"/>
</clipPath>
</defs>
</svg>
