<svg width="25" height="24" viewBox="0 0 25 24" fill="none" xmlns="http://www.w3.org/2000/svg">
<path d="M15.8926 15H20.8926C21.4449 15 21.8926 14.5523 21.8926 14V4C21.8926 3.44772 21.4449 3 20.8926 3L10.8926 3C10.3403 3 9.89258 3.44771 9.89258 4L9.89258 9" stroke="#F47622" stroke-width="1.21901" stroke-linecap="round" stroke-linejoin="round"/>
<path d="M4.89258 21L14.8926 21C15.4449 21 15.8926 20.5523 15.8926 20L15.8926 10C15.8926 9.44772 15.4449 9 14.8926 9L4.89258 9C4.34029 9 3.89258 9.44771 3.89258 10L3.89258 20C3.89258 20.5523 4.34029 21 4.89258 21Z" stroke="#F47622" stroke-width="1.21901" stroke-linecap="round" stroke-linejoin="round"/>
</svg>
