<svg width="25" height="24" viewBox="0 0 25 24" fill="none" xmlns="http://www.w3.org/2000/svg">
<path d="M21 4H5C4.44772 4 4 4.44772 4 5V19C4 19.5523 4.44772 20 5 20H21C21.5523 20 22 19.5523 22 19V5C22 4.44772 21.5523 4 21 4Z" stroke="#F47622" stroke-width="2" stroke-linecap="round" stroke-linejoin="round"/>
<path d="M4 17.0016L9.22999 10.9C9.63274 10.4301 10.3613 10.4352 10.7575 10.9106L14.299 15.1604C14.6754 15.6122 15.3585 15.6431 15.7743 15.2273L17.21 13.7917C17.6314 13.3702 18.3256 13.4087 18.698 13.8741L22 18.0016" stroke="#F47622" stroke-width="2" stroke-linecap="round" stroke-linejoin="round"/>
<path d="M15 9C15 8.44772 15.4477 8 16 8C16.5523 8 17 8.44772 17 9C17 9.55228 16.5523 10 16 10C15.4477 10 15 9.55228 15 9Z" stroke="#F47622" stroke-width="2" stroke-linecap="round" stroke-linejoin="round"/>
</svg>
