<svg width="28" height="28" viewBox="0 0 28 28" fill="none" xmlns="http://www.w3.org/2000/svg">
<rect x="3.64648" y="3.64648" width="21.6724" height="21.6724" rx="3.25" stroke="#2C2C2C" stroke-width="1.5"/>
<path d="M9.55664 21.3327C9.55664 19.8599 11.5465 18.666 14.0011 18.666C16.4557 18.666 18.4455 19.8599 18.4455 21.3327" stroke="#2C2C2C" stroke-linecap="round" stroke-linejoin="round"/>
<path d="M19.334 16.2227C20.9037 16.6342 22.0007 17.5739 22.0007 18.6674" stroke="#2C2C2C" stroke-linecap="round" stroke-linejoin="round"/>
<path d="M8.66667 16.2227C7.09697 16.6342 6 17.5739 6 18.6674" stroke="#2C2C2C" stroke-linecap="round" stroke-linejoin="round"/>
<path d="M14.0007 15.9993C15.4734 15.9993 16.6673 14.8054 16.6673 13.3327C16.6673 11.8599 15.4734 10.666 14.0007 10.666C12.5279 10.666 11.334 11.8599 11.334 13.3327C11.334 14.8054 12.5279 15.9993 14.0007 15.9993Z" stroke="#2C2C2C" stroke-linecap="round" stroke-linejoin="round"/>
<path d="M19.3309 12.6543C19.8765 12.166 20.2198 11.4564 20.2198 10.6667C20.2198 9.19391 19.0259 8 17.5532 8C16.8702 8 16.2472 8.25676 15.7754 8.67902" stroke="#2C2C2C" stroke-linecap="round" stroke-linejoin="round"/>
<path d="M8.66428 12.6543C8.11872 12.166 7.77539 11.4564 7.77539 10.6667C7.77539 9.19391 8.9693 8 10.4421 8C11.125 8 11.7481 8.25676 12.2198 8.67902" stroke="#2C2C2C" stroke-linecap="round" stroke-linejoin="round"/>
</svg>
