<svg width="25" height="24" viewBox="0 0 25 24" fill="none" xmlns="http://www.w3.org/2000/svg">
<path d="M18.8926 21C20.5494 21 21.8926 19.6569 21.8926 18C21.8926 16.3431 20.5494 15 18.8926 15C17.2357 15 15.8926 16.3431 15.8926 18C15.8926 19.6569 17.2357 21 18.8926 21Z" stroke="#F47622" stroke-width="1.21901" stroke-linecap="round" stroke-linejoin="round"/>
<path d="M9.89258 13.5L15.8926 16.5" stroke="#F47622" stroke-width="1.21901" stroke-linecap="round" stroke-linejoin="round"/>
<path d="M6.89258 15C8.54943 15 9.89258 13.6569 9.89258 12C9.89258 10.3431 8.54943 9 6.89258 9C5.23572 9 3.89258 10.3431 3.89258 12C3.89258 13.6569 5.23572 15 6.89258 15Z" stroke="#F47622" stroke-width="1.21901" stroke-linecap="round" stroke-linejoin="round"/>
<path d="M15.8926 7.5L9.89258 10.5" stroke="#F47622" stroke-width="1.21901" stroke-linecap="round" stroke-linejoin="round"/>
<path d="M18.8926 9C20.5494 9 21.8926 7.65685 21.8926 6C21.8926 4.34315 20.5494 3 18.8926 3C17.2357 3 15.8926 4.34315 15.8926 6C15.8926 7.65685 17.2357 9 18.8926 9Z" stroke="#F47622" stroke-width="1.21901" stroke-linecap="round" stroke-linejoin="round"/>
</svg>
